# xmcd CD database file
#
# Track frame offsets:
#	150
#	13893
#	27155
#	40215
#
# Disc length: 837 seconds
#
# Revision: 1
# Processed by: cddbd v1.5.1PL0 Copyright (c) Steve Scherf et al.
# Submitted via: CDex 1.51
#
DISCID=29034304
DTITLE=Micah Blue Smaldone - Hither EP
DYEAR=2005
DGENRE=Blues
TTITLE0=More Than I Can Bear
TTITLE1=Grim
TTITLE2=Tatterdemalion Stomp
TTITLE3=Sporting Sorrow Blues
EXTD=YEAR: 2005
EXTT0=
EXTT1=
EXTT2=
EXTT3=
PLAYORDER=
